<?xml version="1.0" encoding="utf-8"?>
<!-- Svg Vector Icons : http://www.onlinewebfonts.com/icon -->
<!DOCTYPE svg PUBLIC "-//W3C//DTD SVG 1.1//EN" "http://www.w3.org/Graphics/SVG/1.1/DTD/svg11.dtd">
<svg version="1.1" xmlns="http://www.w3.org/2000/svg" xmlns:xlink="http://www.w3.org/1999/xlink" x="0px" y="0px" viewBox="0 0 1000 1000" enable-background="new 0 0 1000 1000" xml:space="preserve">
<metadata> Svg Vector Icons : http://www.onlinewebfonts.com/icon </metadata>
<g><path d="M471.4,727.6"/><path d="M253.4,727.6"/><path d="M742.3,397.2H368.6c-17.2,0-31.1-16.1-31.1-33.3c0-17.2,13.9-33.3,31.1-33.3h373.7c17.2,0,31.1,16.1,31.1,33.3C773.4,381,759.5,397.2,742.3,397.2z"/><path d="M225.3,333.4h60v60h-60V333.4z"/><path d="M742.3,594.5H368.6c-17.2,0-31.1-16.1-31.1-33.3c0-17.2,13.9-33.3,31.1-33.3h373.7c17.2,0,31.1,16.1,31.1,33.3C773.4,578.4,759.5,594.5,742.3,594.5z"/><path d="M225.3,531.2h60v60h-60V531.2z"/><path d="M742.3,791.8H368.6c-17.2,0-31.1-16.1-31.1-33.3c0-17.2,13.9-33.3,31.1-33.3h373.7c17.2,0,31.1,16.1,31.1,33.3C773.4,775.7,759.5,791.8,742.3,791.8z"/><path d="M225.3,728.5h60v60h-60V728.5z"/><path d="M790.5,77.2h-20.7C764.6,39.3,732,10,692.7,10H307.3c-39.3,0-71.8,29.3-77,67.2h-20.7c-67.5,0-122.4,54.9-122.4,122.4v667.9C87.1,935.1,142,990,209.5,990h580.9c67.5,0,122.4-54.9,122.4-122.4V199.6C912.9,132.1,858,77.2,790.5,77.2z M295.7,87.7c0-6.4,5.2-11.6,11.6-11.6h385.4c6.4,0,11.6,5.2,11.6,11.6v51.7c0,6.4-5.2,11.6-11.6,11.6H307.3c-6.4,0-11.6-5.2-11.6-11.6V87.7z M846.8,867.6c0,31-25.3,56.3-56.3,56.3H209.5c-31,0-56.3-25.3-56.3-56.3V199.6c0-31,25.3-56.3,56.3-56.3h20.1c2,41.1,36.1,73.9,77.6,73.9h385.4c41.6,0,75.6-32.8,77.6-73.9h20.1c31,0,56.3,25.3,56.3,56.3V867.6L846.8,867.6z"/></g>
</svg>